<svg width="12" height="12" viewBox="0 0 12 12" fill="none" xmlns="http://www.w3.org/2000/svg">
<path d="M1.62444 3H10.3756C10.4956 3.00012 10.613 3.03344 10.7138 3.09598C10.8146 3.15852 10.8946 3.24764 10.9442 3.35269C10.9937 3.45775 11.0108 3.57429 10.9933 3.68842C10.9759 3.80254 10.9246 3.90942 10.8456 3.99629L6.47006 8.80346C6.40993 8.86547 6.33717 8.91492 6.2563 8.94874C6.17543 8.98255 6.08819 9 6 9C5.91181 9 5.82457 8.98255 5.7437 8.94874C5.66283 8.91492 5.59007 8.86547 5.52994 8.80346L1.15438 3.99629C1.07543 3.90942 1.02414 3.80254 1.00667 3.68842C0.989188 3.57429 1.00625 3.45775 1.05582 3.35269C1.10538 3.24764 1.18536 3.15852 1.28619 3.09598C1.38702 3.03344 1.50445 3.00012 1.62444 3Z" fill="#009DFF"/>
</svg>
