<svg version="1.1" id="Layer_1" xmlns="http://www.w3.org/2000/svg"
	xmlns:xlink="http://www.w3.org/1999/xlink" x="0px" y="0px"
	width="100%" viewBox="0 0 1024 1024" enable-background="new 0 0 1024 1024" xml:space="preserve">
<path fill="#ffffff" opacity="1.000000" stroke="none" 
	d="
M310.622955,728.257690 
	C308.968658,712.423767 307.338287,697.044434 305.712799,681.664490 
	C303.544983,661.153198 301.353882,640.644348 299.223267,620.129150 
	C297.333618,601.934509 295.547150,583.729187 293.651917,565.535095 
	C291.826019,548.006348 289.889984,530.489197 288.056244,512.961304 
	C286.238525,495.586060 284.533936,478.198914 282.695740,460.825867 
	C280.614441,441.154785 278.432159,421.494446 276.308167,401.827850 
	C274.754974,387.446381 273.223419,373.062531 271.685303,358.679443 
	C270.836853,350.745728 270.003937,342.810333 269.142517,334.878021 
	C268.948761,333.093781 268.213898,331.289154 269.793060,329.154633 
	C277.646698,331.037964 285.666565,333.031738 293.719971,334.879456 
	C320.341736,340.987457 347.380188,344.377136 374.441437,347.892181 
	C440.448761,356.465973 506.745483,355.371552 573.012085,354.438690 
	C602.778198,354.019623 632.444397,350.943420 662.037842,347.196838 
	C689.130981,343.766815 716.049622,339.591064 742.689270,333.633423 
	C748.649841,332.300415 754.508484,330.511780 760.521851,328.904053 
	C762.334534,334.243622 760.553955,339.014862 760.132263,343.701660 
	C758.209412,365.073212 755.813538,386.401855 753.639282,407.751190 
	C751.499329,428.763519 749.428284,449.782867 747.314453,470.797852 
	C745.083740,492.975067 742.858765,515.152893 740.593079,537.326599 
	C738.530273,557.515137 736.421265,577.699036 734.323425,597.883972 
	C731.727295,622.862000 729.091003,647.835938 726.530518,672.817627 
	C724.732727,690.358337 723.090637,707.914978 721.274170,725.453735 
	C719.098389,746.461792 716.720886,767.449280 714.606140,788.463318 
	C713.340393,801.040955 712.436279,813.654724 711.319763,826.247803 
	C710.614868,834.199219 710.309631,842.228577 708.936523,850.067322 
	C707.257629,859.651367 701.911499,866.954041 692.515747,870.522583 
	C673.918457,877.585876 654.493408,881.546753 635.043213,885.288147 
	C586.875244,894.553589 538.172119,896.935425 489.299072,895.081421 
	C443.155273,893.330994 397.377686,888.261597 352.799103,875.322266 
	C350.562775,874.673157 348.350708,873.939331 346.110138,873.305969 
	C329.555573,868.626465 323.283875,860.656433 321.740234,843.435059 
	C319.290009,816.099487 316.537750,788.790955 313.894867,761.472717 
	C312.838135,750.550049 311.732452,739.632019 310.622955,728.257690 
M472.335907,844.806274 
	C481.766754,843.588013 485.934967,838.997864 485.759277,829.530457 
	C485.196960,799.224915 484.532532,768.921204 483.902069,738.616882 
	C483.243835,706.979736 482.587952,675.342590 481.915009,643.705750 
	C481.266876,613.234558 480.616669,582.763428 479.933441,552.293030 
	C479.283844,523.323425 478.586548,494.354828 477.917572,465.385620 
	C477.525421,448.402405 477.128937,431.419220 476.771912,414.435242 
	C476.615082,406.973633 473.067017,401.680206 466.317413,398.826324 
	C452.333130,392.913391 437.068329,401.566498 437.723694,417.487305 
	C439.401276,458.242126 442.108856,498.935791 444.036499,539.672058 
	C445.814941,577.254395 447.476959,614.842285 449.241638,652.425293 
	C450.482941,678.861023 451.883118,705.289307 453.080872,731.726929 
	C454.565125,764.488770 455.932861,797.256104 457.307861,830.022827 
	C457.681885,838.935242 462.611237,844.162292 472.335907,844.806274 
M587.522705,528.068970 
	C588.334106,508.938477 589.098083,489.805847 589.970337,470.678131 
	C590.826904,451.891693 591.905029,433.114716 592.656921,414.324432 
	C592.958008,406.799561 588.826721,401.669525 582.186707,398.761627 
	C567.902466,392.505951 553.478760,401.710602 553.403870,417.272095 
	C553.253052,448.592529 552.324463,479.891602 551.459045,511.196106 
	C550.593750,542.497681 550.043640,573.808167 549.400146,605.115601 
	C548.619629,643.086243 548.230713,681.068787 547.033752,719.026001 
	C545.868347,755.983459 545.102844,792.946411 544.379456,829.911438 
	C544.194153,839.381165 549.500427,844.939514 557.934570,845.044556 
	C566.521301,845.151489 572.307617,839.357422 572.692200,830.261719 
	C573.114136,820.280884 573.466370,810.296692 573.963989,800.319702 
	C575.522583,769.072083 577.149536,737.827820 578.721313,706.580811 
	C579.549377,690.118103 580.275757,673.650269 581.123962,657.188660 
	C582.271606,634.915894 583.562866,612.650330 584.660583,590.375183 
	C585.668457,569.921326 586.501526,549.458801 587.522705,528.068970 
M386.663940,526.750427 
	C385.995667,516.625916 385.323639,506.501678 384.660156,496.376892 
	C383.876953,484.424927 383.136078,472.470093 382.313843,460.520844 
	C381.126160,443.261078 379.646088,426.017487 378.746765,408.743256 
	C378.171326,397.690857 370.877380,389.908325 360.260132,390.103973 
	C350.417694,390.285339 343.773499,397.762329 344.348816,409.037048 
	C344.933197,420.489105 346.305634,431.900085 347.287994,443.332916 
	C348.740295,460.234894 350.102692,477.144745 351.595001,494.043152 
	C353.452728,515.079712 355.464172,536.102783 357.295715,557.141602 
	C358.824677,574.704285 360.108795,592.288269 361.649139,609.849854 
	C363.435913,630.221497 365.414764,650.576172 367.253357,670.943298 
	C369.047180,690.813904 370.759918,710.691895 372.525360,730.565063 
	C374.452271,752.256409 376.359894,773.949707 378.354889,795.634827 
	C379.206848,804.895447 379.910980,814.191284 381.325043,823.372131 
	C382.559814,831.388916 388.637177,835.546570 396.331177,834.614807 
	C402.911804,833.817810 407.788177,827.885559 407.602844,820.380981 
	C407.446899,814.065430 406.921631,807.755798 406.448303,801.451904 
	C404.878845,780.550964 403.228058,759.656128 401.668854,738.754395 
	C400.530334,723.492432 399.524231,708.220642 398.392029,692.958130 
	C396.853790,672.221375 395.213501,651.492126 393.689270,630.754333 
	C392.555481,615.328735 391.518585,599.895813 390.470886,584.463989 
	C389.186340,565.543457 387.935516,546.620728 386.663940,526.750427 
M650.308228,443.612000 
	C648.804749,466.530548 647.323547,489.450623 645.789246,512.367126 
	C644.888916,525.813721 643.930969,539.256653 642.951477,552.697754 
	C641.416016,573.767517 639.788391,594.830750 638.298584,615.903687 
	C637.148499,632.170288 636.221008,648.452698 635.066345,664.718933 
	C633.535461,686.286621 631.910400,707.847839 630.267212,729.407410 
	C629.104553,744.662231 627.718628,759.901001 626.664062,775.162903 
	C625.608826,790.433289 624.574646,805.714539 624.057129,821.008789 
	C623.784912,829.056213 629.119080,834.391663 636.330017,834.647705 
	C643.861145,834.915222 649.862915,829.952515 650.571228,822.156555 
	C652.421082,801.796021 653.973999,781.408569 655.682617,761.034973 
	C657.085876,744.302734 658.481201,727.569519 659.993469,710.846924 
	C661.490417,694.292786 663.193542,677.757202 664.688232,661.202881 
	C666.227844,644.151489 667.570862,627.082458 669.098694,610.030029 
	C670.893555,589.997681 672.828735,569.977966 674.640991,549.947205 
	C676.798645,526.100403 678.938843,502.251831 680.997070,478.396271 
	C683.026367,454.874817 685.064270,431.352814 686.851501,407.812317 
	C687.573486,398.302155 681.567078,391.149475 672.890381,390.304962 
	C663.113281,389.353394 654.446655,395.527710 653.447998,404.864655 
	C652.104065,417.429932 651.338440,430.057068 650.308228,443.612000 
z"/>
<path fill="#ffffff" opacity="1.000000" stroke="none" 
	d="
M692.210266,273.334839 
	C673.066589,276.610931 654.155334,278.163849 635.311035,280.286804 
	C584.204712,286.044281 532.900818,285.694153 481.606476,285.219543 
	C451.796082,284.943726 422.101685,282.461060 392.422089,279.635773 
	C366.234680,277.143005 340.151184,274.194122 314.481445,268.303406 
	C307.841309,266.779633 301.112701,265.444733 294.791168,262.832855 
	C290.322205,260.986359 285.284973,258.942749 284.911591,253.336014 
	C284.542816,247.798615 288.892303,244.804535 293.299896,242.548981 
	C307.655609,235.202545 323.221649,231.352570 338.776978,227.817139 
	C369.766052,220.773987 401.276978,216.904068 432.860748,213.692612 
	C437.232697,213.248077 438.837097,211.454071 438.734406,206.993484 
	C438.469879,195.502075 438.582428,184.000504 438.641510,172.503510 
	C438.713470,158.501083 447.384888,149.767319 461.436096,149.732315 
	C489.762756,149.661758 518.089722,149.723190 546.416565,149.731857 
	C554.414734,149.734314 562.414001,149.656906 570.410767,149.767090 
	C584.555603,149.961990 593.315613,158.933960 593.339050,173.109390 
	C593.358643,184.939941 593.435791,196.770966 593.347717,208.600739 
	C593.322754,211.961487 594.200500,213.624054 597.994629,213.997009 
	C625.968201,216.746887 653.828918,220.419098 681.431396,225.766449 
	C698.424805,229.058548 715.264099,233.078262 731.390381,239.571136 
	C735.253357,241.126480 739.120239,242.778976 742.304810,245.542389 
	C748.194824,250.653366 747.583313,257.126221 740.876526,261.105011 
	C736.531372,263.682739 731.680298,264.967590 726.856628,266.263763 
	C715.595337,269.289886 704.170715,271.537537 692.210266,273.334839 
M471.150421,184.942184 
	C471.175262,191.765289 471.249298,198.588760 471.201202,205.411346 
	C471.181458,208.210709 472.016968,209.708588 475.184326,209.700546 
	C502.310730,209.631668 529.437439,209.641693 556.563843,209.694229 
	C559.576660,209.700058 560.718262,208.438705 560.672546,205.494858 
	C560.577026,199.338913 560.346375,193.159225 560.762390,187.029404 
	C561.092163,182.169235 559.171082,180.286362 554.581299,180.468613 
	C553.418457,180.514786 552.251282,180.453400 551.088379,180.498886 
	C530.128113,181.318863 509.160492,180.756851 488.196350,180.819748 
	C484.042480,180.832214 479.885712,180.513290 475.734772,180.590134 
	C473.560883,180.630386 471.273590,181.038986 471.150421,184.942184 
z"/>
<path fill="#ffffff" opacity="1.000000" stroke="none" 
	d="
M570.854736,340.092346 
	C536.876953,340.129761 503.373993,340.617859 469.889557,340.037567 
	C439.935699,339.518402 410.058472,337.303284 380.299591,333.436188 
	C349.450623,329.427429 318.533813,325.976868 288.268799,318.436401 
	C279.541077,316.261932 270.914032,313.752838 262.527649,310.494080 
	C254.606369,307.416077 251.819366,303.326355 251.782227,294.996063 
	C251.736923,284.830902 251.693497,274.665344 251.734909,264.500305 
	C251.759827,258.386383 254.642990,253.912415 260.110138,250.819321 
	C258.347900,255.526428 257.120605,260.033417 260.536652,264.432037 
	C263.491821,268.237213 267.391663,270.747101 271.646301,272.718842 
	C287.196625,279.925446 303.847382,283.397247 320.525970,286.560394 
	C357.997803,293.667023 395.822571,297.743927 433.903564,299.995636 
	C478.863007,302.654114 523.839050,302.238068 568.805237,301.459229 
	C595.912354,300.989716 622.961121,298.554291 649.943481,295.717285 
	C683.067383,292.234589 715.915649,287.253082 747.895020,277.608734 
	C753.480225,275.924347 758.907715,273.785736 763.882996,270.640533 
	C772.697693,265.068176 774.320679,259.992096 770.146423,250.888077 
	C775.037598,252.657349 779.204773,258.377289 779.277161,264.142944 
	C779.423584,275.806152 779.457825,287.474701 779.268494,299.136658 
	C779.169006,305.265320 774.394226,308.032776 769.665039,310.150116 
	C760.055664,314.452423 749.749390,316.676514 739.594299,319.246216 
	C711.937439,326.244720 683.658020,329.590912 655.431702,333.195953 
	C627.506531,336.762543 599.468689,339.003204 570.854736,340.092346 
z"/>
</svg>