<svg width="16" height="16" viewBox="0 0 16 16" fill="none" xmlns="http://www.w3.org/2000/svg">
<path d="M11.0547 1.33325C10.4848 1.33642 9.92126 1.45279 9.39675 1.67562C8.87224 1.89845 8.39725 2.22328 7.99935 2.63125C7.40866 2.02061 6.64913 1.60022 5.81805 1.42393C4.98696 1.24763 4.12217 1.32346 3.33445 1.6417C2.54673 1.95994 1.87195 2.5061 1.39655 3.21021C0.921146 3.91433 0.666774 4.74433 0.666016 5.59391C0.666016 9.48991 7.32868 14.9646 7.61268 15.1939C7.72199 15.2827 7.85853 15.3312 7.99935 15.3312C8.14017 15.3312 8.2767 15.2827 8.38601 15.1939C8.67002 14.9646 15.3327 9.48991 15.3327 5.59391C15.329 4.46205 14.8765 3.37786 14.0745 2.57914C13.2726 1.78041 12.1866 1.33236 11.0547 1.33325Z" fill="#ff0000"/>
</svg>
