<?xml version="1.0" encoding="iso-8859-1"?>
<!-- Uploaded to: SVG Repo, www.svgrepo.com, Generator: SVG Repo Mixer Tools -->
<!DOCTYPE svg PUBLIC "-//W3C//DTD SVG 1.1//EN" "http://www.w3.org/Graphics/SVG/1.1/DTD/svg11.dtd">
<svg fill="#ffffff" version="1.1" id="Capa_1" xmlns="http://www.w3.org/2000/svg" xmlns:xlink="http://www.w3.org/1999/xlink" 
	 width="800px" height="800px" viewBox="0 0 420.238 420.238"
	 xml:space="preserve">
<g>
	<path d="M402.05,7.498l-95.175,0.004c-0.073-0.004-0.146-0.004-0.22-0.004H116.767c-10.028,0-18.188,8.158-18.188,18.188V78.25
		H17.543C7.855,78.25,0,86.105,0,95.793v299.404c0,9.688,7.854,17.543,17.543,17.543h299.402c9.688,0,17.543-7.855,17.543-17.543
		V204.015h67.562c10.029,0,18.188-8.16,18.188-18.188V25.685C420.238,15.656,412.079,7.498,402.05,7.498z M35.086,377.654V113.336
		H98.58v72.492c0,10.027,8.159,18.188,18.188,18.188h73.979v20.191l-45.196,33.266l-15.817-21.487
		c-1.589-2.158-4.207-3.306-6.87-3.009s-4.966,1.992-6.04,4.445l-38.639,88.268c-0.423,0.966-0.63,1.988-0.63,3.009
		c0,1.573,0.495,3.137,1.46,4.446c1.588,2.156,4.207,3.304,6.87,3.009l95.764-10.66c2.663-0.297,4.966-1.99,6.04-4.445
		c1.073-2.456,0.758-5.297-0.83-7.452l-15.816-21.49l59.651-43.908c1.92-1.414,3.054-3.656,3.054-6.041v-38.139h65.655v173.639
		H35.086V377.654z"/>
</g>
</svg>