<svg width="13" height="12" viewBox="0 0 13 12" fill="none" xmlns="http://www.w3.org/2000/svg">
<g clip-path="url(#clip0_2203_2236)">
<path d="M8.51499 4.2508L12.0523 4.76441L9.49264 7.26213L9.30454 7.44567L9.34906 7.70468L9.95494 11.23L9.95366 11.23L6.7875 9.56542L6.55462 9.44299L6.32183 9.56559L3.15483 11.2336L3.1546 11.2337L3.15461 11.2337L3.76061 7.70768L3.80512 7.44867L3.61703 7.26513L1.05503 4.76513L1.05469 4.7648L4.59468 4.2508L4.85511 4.21298L4.97138 3.9769L6.53836 0.79533C6.53957 0.794182 6.54092 0.793177 6.54237 0.79234C6.54556 0.790513 6.54916 0.789551 6.55283 0.789551C6.5565 0.789551 6.56011 0.790513 6.56329 0.79234C6.56477 0.793191 6.56614 0.794216 6.56736 0.795389L8.13851 3.97735L8.25487 4.21303L8.51499 4.2508Z" fill="#FFB13D" stroke="#FFB13D"/>
</g>
<defs>
<clipPath id="clip0_2203_2236">
<rect width="12" height="12" fill="white" transform="translate(0.554688)"/>
</clipPath>
</defs>
</svg>
